<svg width="41" height="30" viewBox="0 0 41 30" fill="none" xmlns="http://www.w3.org/2000/svg">
<g clip-path="url(#clip0_2701_1341)">
<path d="M37.2107 1.24023H3.7807C2.09071 1.24023 0.720703 2.61024 0.720703 4.30023V25.7002C0.720703 27.3902 2.09071 28.7602 3.7807 28.7602H37.2107C38.9007 28.7602 40.2707 27.3902 40.2707 25.7002V4.30023C40.2707 2.61024 38.9007 1.24023 37.2107 1.24023Z" stroke="#362FC1" stroke-width="1.38" stroke-linecap="round" stroke-linejoin="round"/>
<path d="M29.0481 15.7403C31.1026 15.7403 32.7681 14.0748 32.7681 12.0203C32.7681 9.96579 31.1026 8.30029 29.0481 8.30029C26.9936 8.30029 25.3281 9.96579 25.3281 12.0203C25.3281 14.0748 26.9936 15.7403 29.0481 15.7403Z" stroke="#362FC1" stroke-width="1.15" stroke-linecap="round" stroke-linejoin="round"/>
<path d="M23.2285 21.7104C23.2285 18.4904 25.8385 15.8804 29.0585 15.8804C32.2785 15.8804 34.8885 18.4904 34.8885 21.7104" stroke="#362FC1" stroke-width="1.15" stroke-linecap="round" stroke-linejoin="round"/>
<path d="M7.62937 10.9001C7.09938 11.7501 6.81938 12.7301 6.81938 13.7201C6.81938 13.9201 6.85938 15.1901 6.85938 15.1901C6.85938 16.1401 6.59938 17.0801 6.10938 17.9101M15.1094 13.7201C15.1094 12.4301 14.2494 10.9001 12.4794 10.9001C10.7094 10.9001 9.66937 12.3501 9.66937 13.6401V14.4201C9.66937 16.2801 9.45938 18.0601 8.30938 19.5401M10.3494 21.8501C11.7494 19.8901 12.4994 17.5701 12.4994 15.1801V13.6101M13.7494 21.1301C14.2594 20.5701 15.1194 18.0001 15.1194 16.2801M17.4194 19.6301C17.8794 18.1101 18.1094 15.1801 18.1094 13.6001C18.1094 10.5901 15.5994 8.15014 12.4994 8.14014H12.4794C11.4894 8.14014 10.5194 8.39014 9.66937 8.87014" stroke="#362FC1" stroke-width="1.15" stroke-linecap="round" stroke-linejoin="round"/>
</g>
<defs>
<clipPath id="clip0_2701_1341">
<rect width="41" height="30" fill="white"/>
</clipPath>
</defs>
</svg>
